<?xml version="1.0" encoding="us-ascii" standalone="no"?><svg xmlns="http://www.w3.org/2000/svg" xmlns:xlink="http://www.w3.org/1999/xlink" contentStyleType="text/css" height="903px" preserveAspectRatio="none" style="width:937px;height:903px;background:#FFFFFF;" version="1.1" viewBox="0 0 937 903" width="937px" zoomAndPan="magnify"><defs/><g><rect fill="#ADD8E6" height="891.3125" style="stroke:#181818;stroke-width:0.5;" width="598" x="178.5" y="6"/><text fill="#000000" font-family="sans-serif" font-size="13" font-weight="bold" lengthAdjust="spacing" textLength="188" x="383.5" y="18.0669">Image Processing Library</text><rect fill="#FFFFFF" height="766.4531" style="stroke:#181818;stroke-width:1.0;" width="10" x="195" y="87.5625"/><rect fill="#FFFFFF" height="329.4609" style="stroke:#181818;stroke-width:1.0;" width="10" x="200" y="524.5547"/><rect fill="#FFFFFF" height="212.9297" style="stroke:#181818;stroke-width:1.0;" width="10" x="205" y="641.0859"/><rect fill="#FFFFFF" height="58.2656" style="stroke:#181818;stroke-width:1.0;" width="10" x="319" y="233.2266"/><rect fill="#FFFFFF" height="174.7969" style="stroke:#181818;stroke-width:1.0;" width="10" x="319" y="320.625"/><rect fill="#FFFFFF" height="29.1328" style="stroke:#181818;stroke-width:1.0;" width="10" x="426.5" y="116.6953"/><rect fill="#FFFFFF" height="174.7969" style="stroke:#181818;stroke-width:1.0;" width="10" x="426.5" y="320.625"/><rect fill="#FFFFFF" height="29.1328" style="stroke:#181818;stroke-width:1.0;" width="10" x="426.5" y="786.75"/><rect fill="#FFFFFF" height="116.5313" style="stroke:#181818;stroke-width:1.0;" width="10" x="555.5" y="378.8906"/><rect fill="#FFFFFF" height="29.1328" style="stroke:#181818;stroke-width:1.0;" width="10" x="699" y="466.2891"/><rect fill="#FFFFFF" height="300.3281" style="stroke:#181818;stroke-width:1.0;" width="10" x="699" y="553.6875"/><rect fill="#FFFFFF" height="29.1328" style="stroke:#181818;stroke-width:1.0;" width="10" x="852" y="408.0234"/><line style="stroke:#181818;stroke-width:0.5;stroke-dasharray:5.0,5.0;" x1="28" x2="28" y1="56.4297" y2="863.0156"/><line style="stroke:#181818;stroke-width:0.5;stroke-dasharray:5.0,5.0;" x1="199.5" x2="199.5" y1="56.4297" y2="863.0156"/><line style="stroke:#181818;stroke-width:0.5;stroke-dasharray:5.0,5.0;" x1="324" x2="324" y1="56.4297" y2="863.0156"/><line style="stroke:#181818;stroke-width:0.5;stroke-dasharray:5.0,5.0;" x1="431" x2="431" y1="56.4297" y2="863.0156"/><line style="stroke:#181818;stroke-width:0.5;stroke-dasharray:5.0,5.0;" x1="560.5" x2="560.5" y1="56.4297" y2="863.0156"/><line style="stroke:#181818;stroke-width:0.5;stroke-dasharray:5.0,5.0;" x1="703.5" x2="703.5" y1="56.4297" y2="863.0156"/><line style="stroke:#181818;stroke-width:0.5;stroke-dasharray:5.0,5.0;" x1="856.5" x2="856.5" y1="56.4297" y2="863.0156"/><rect fill="#E2E2F0" height="30.2969" rx="2.5" ry="2.5" style="stroke:#181818;stroke-width:0.5;" width="46" x="5" y="25.1328"/><text fill="#000000" font-family="sans-serif" font-size="14" lengthAdjust="spacing" textLength="32" x="12" y="45.1279">User</text><rect fill="#E2E2F0" height="30.2969" rx="2.5" ry="2.5" style="stroke:#181818;stroke-width:0.5;" width="46" x="5" y="862.0156"/><text fill="#000000" font-family="sans-serif" font-size="14" lengthAdjust="spacing" textLength="32" x="12" y="882.0107">User</text><rect fill="#E2E2F0" height="30.2969" rx="2.5" ry="2.5" style="stroke:#181818;stroke-width:0.5;" width="35" x="182.5" y="25.1328"/><text fill="#000000" font-family="sans-serif" font-size="14" lengthAdjust="spacing" textLength="21" x="189.5" y="45.1279">API</text><rect fill="#E2E2F0" height="30.2969" rx="2.5" ry="2.5" style="stroke:#181818;stroke-width:0.5;" width="35" x="182.5" y="862.0156"/><text fill="#000000" font-family="sans-serif" font-size="14" lengthAdjust="spacing" textLength="21" x="189.5" y="882.0107">API</text><rect fill="#E2E2F0" height="30.2969" rx="2.5" ry="2.5" style="stroke:#181818;stroke-width:0.5;" width="98" x="275" y="25.1328"/><text fill="#000000" font-family="sans-serif" font-size="14" lengthAdjust="spacing" textLength="84" x="282" y="45.1279">Task Queue</text><rect fill="#E2E2F0" height="30.2969" rx="2.5" ry="2.5" style="stroke:#181818;stroke-width:0.5;" width="98" x="275" y="862.0156"/><text fill="#000000" font-family="sans-serif" font-size="14" lengthAdjust="spacing" textLength="84" x="282" y="882.0107">Task Queue</text><rect fill="#E2E2F0" height="30.2969" rx="2.5" ry="2.5" style="stroke:#181818;stroke-width:0.5;" width="97" x="383" y="25.1328"/><text fill="#000000" font-family="sans-serif" font-size="14" lengthAdjust="spacing" textLength="83" x="390" y="45.1279">Worker Pool</text><rect fill="#E2E2F0" height="30.2969" rx="2.5" ry="2.5" style="stroke:#181818;stroke-width:0.5;" width="97" x="383" y="862.0156"/><text fill="#000000" font-family="sans-serif" font-size="14" lengthAdjust="spacing" textLength="83" x="390" y="882.0107">Worker Pool</text><rect fill="#E2E2F0" height="30.2969" rx="2.5" ry="2.5" style="stroke:#181818;stroke-width:0.5;" width="130" x="495.5" y="25.1328"/><text fill="#000000" font-family="sans-serif" font-size="14" lengthAdjust="spacing" textLength="116" x="502.5" y="45.1279">Image Processor</text><rect fill="#E2E2F0" height="30.2969" rx="2.5" ry="2.5" style="stroke:#181818;stroke-width:0.5;" width="130" x="495.5" y="862.0156"/><text fill="#000000" font-family="sans-serif" font-size="14" lengthAdjust="spacing" textLength="116" x="502.5" y="882.0107">Image Processor</text><rect fill="#E2E2F0" height="30.2969" rx="2.5" ry="2.5" style="stroke:#181818;stroke-width:0.5;" width="137" x="635.5" y="25.1328"/><text fill="#000000" font-family="sans-serif" font-size="14" lengthAdjust="spacing" textLength="123" x="642.5" y="45.1279">Result/Error Store</text><rect fill="#E2E2F0" height="30.2969" rx="2.5" ry="2.5" style="stroke:#181818;stroke-width:0.5;" width="137" x="635.5" y="862.0156"/><text fill="#000000" font-family="sans-serif" font-size="14" lengthAdjust="spacing" textLength="123" x="642.5" y="882.0107">Result/Error Store</text><rect fill="#E2E2F0" height="30.2969" rx="2.5" ry="2.5" style="stroke:#181818;stroke-width:0.5;" width="149" x="782.5" y="25.1328"/><text fill="#000000" font-family="sans-serif" font-size="14" lengthAdjust="spacing" textLength="135" x="789.5" y="45.1279">Third-party Libraries</text><rect fill="#E2E2F0" height="30.2969" rx="2.5" ry="2.5" style="stroke:#181818;stroke-width:0.5;" width="149" x="782.5" y="862.0156"/><text fill="#000000" font-family="sans-serif" font-size="14" lengthAdjust="spacing" textLength="135" x="789.5" y="882.0107">Third-party Libraries</text><rect fill="#FFFFFF" height="766.4531" style="stroke:#181818;stroke-width:1.0;" width="10" x="195" y="87.5625"/><rect fill="#FFFFFF" height="329.4609" style="stroke:#181818;stroke-width:1.0;" width="10" x="200" y="524.5547"/><rect fill="#FFFFFF" height="212.9297" style="stroke:#181818;stroke-width:1.0;" width="10" x="205" y="641.0859"/><rect fill="#FFFFFF" height="58.2656" style="stroke:#181818;stroke-width:1.0;" width="10" x="319" y="233.2266"/><rect fill="#FFFFFF" height="174.7969" style="stroke:#181818;stroke-width:1.0;" width="10" x="319" y="320.625"/><rect fill="#FFFFFF" height="29.1328" style="stroke:#181818;stroke-width:1.0;" width="10" x="426.5" y="116.6953"/><rect fill="#FFFFFF" height="174.7969" style="stroke:#181818;stroke-width:1.0;" width="10" x="426.5" y="320.625"/><rect fill="#FFFFFF" height="29.1328" style="stroke:#181818;stroke-width:1.0;" width="10" x="426.5" y="786.75"/><rect fill="#FFFFFF" height="116.5313" style="stroke:#181818;stroke-width:1.0;" width="10" x="555.5" y="378.8906"/><rect fill="#FFFFFF" height="29.1328" style="stroke:#181818;stroke-width:1.0;" width="10" x="699" y="466.2891"/><rect fill="#FFFFFF" height="300.3281" style="stroke:#181818;stroke-width:1.0;" width="10" x="699" y="553.6875"/><rect fill="#FFFFFF" height="29.1328" style="stroke:#181818;stroke-width:1.0;" width="10" x="852" y="408.0234"/><polygon fill="#181818" points="183,83.5625,193,87.5625,183,91.5625,187,87.5625" style="stroke:#181818;stroke-width:1.0;"/><line style="stroke:#181818;stroke-width:1.0;" x1="28" x2="189" y1="87.5625" y2="87.5625"/><text fill="#000000" font-family="sans-serif" font-size="13" lengthAdjust="spacing" textLength="61" x="35" y="82.4966">Initialize()</text><polygon fill="#181818" points="414.5,112.6953,424.5,116.6953,414.5,120.6953,418.5,116.6953" style="stroke:#181818;stroke-width:1.0;"/><line style="stroke:#181818;stroke-width:1.0;" x1="205" x2="420.5" y1="116.6953" y2="116.6953"/><text fill="#000000" font-family="sans-serif" font-size="13" lengthAdjust="spacing" textLength="42" x="212" y="111.6294">Start()</text><polygon fill="#181818" points="216,141.8281,206,145.8281,216,149.8281,212,145.8281" style="stroke:#181818;stroke-width:1.0;"/><line style="stroke:#181818;stroke-width:1.0;stroke-dasharray:2.0,2.0;" x1="210" x2="430.5" y1="145.8281" y2="145.8281"/><text fill="#000000" font-family="sans-serif" font-size="13" lengthAdjust="spacing" textLength="48" x="222" y="140.7622">Started</text><polygon fill="#181818" points="39,170.9609,29,174.9609,39,178.9609,35,174.9609" style="stroke:#181818;stroke-width:1.0;"/><line style="stroke:#181818;stroke-width:1.0;stroke-dasharray:2.0,2.0;" x1="33" x2="194" y1="174.9609" y2="174.9609"/><text fill="#000000" font-family="sans-serif" font-size="13" lengthAdjust="spacing" textLength="59" x="45" y="169.895">Initialized</text><polygon fill="#181818" points="183,200.0938,193,204.0938,183,208.0938,187,204.0938" style="stroke:#181818;stroke-width:1.0;"/><line style="stroke:#181818;stroke-width:1.0;" x1="28" x2="189" y1="204.0938" y2="204.0938"/><text fill="#000000" font-family="sans-serif" font-size="13" lengthAdjust="spacing" textLength="85" x="35" y="199.0278">SubmitTask()</text><polygon fill="#181818" points="307,229.2266,317,233.2266,307,237.2266,311,233.2266" style="stroke:#181818;stroke-width:1.0;"/><line style="stroke:#181818;stroke-width:1.0;" x1="205" x2="313" y1="233.2266" y2="233.2266"/><text fill="#000000" font-family="sans-serif" font-size="13" lengthAdjust="spacing" textLength="95" x="212" y="228.1606">EnqueueTask()</text><polygon fill="#181818" points="216,258.3594,206,262.3594,216,266.3594,212,262.3594" style="stroke:#181818;stroke-width:1.0;"/><line style="stroke:#181818;stroke-width:1.0;stroke-dasharray:2.0,2.0;" x1="210" x2="318" y1="262.3594" y2="262.3594"/><text fill="#000000" font-family="sans-serif" font-size="13" lengthAdjust="spacing" textLength="83" x="222" y="257.2935">Acknowledge</text><polygon fill="#181818" points="39,287.4922,29,291.4922,39,295.4922,35,291.4922" style="stroke:#181818;stroke-width:1.0;"/><line style="stroke:#181818;stroke-width:1.0;stroke-dasharray:2.0,2.0;" x1="33" x2="194" y1="291.4922" y2="291.4922"/><text fill="#000000" font-family="sans-serif" font-size="13" lengthAdjust="spacing" textLength="46" x="45" y="286.4263">Task ID</text><polygon fill="#181818" points="340,316.625,330,320.625,340,324.625,336,320.625" style="stroke:#181818;stroke-width:1.0;"/><line style="stroke:#181818;stroke-width:1.0;" x1="334" x2="425.5" y1="320.625" y2="320.625"/><text fill="#000000" font-family="sans-serif" font-size="13" lengthAdjust="spacing" textLength="82" x="346" y="315.5591">TryPopTask()</text><polygon fill="#181818" points="414.5,345.7578,424.5,349.7578,414.5,353.7578,418.5,349.7578" style="stroke:#181818;stroke-width:1.0;"/><line style="stroke:#181818;stroke-width:1.0;stroke-dasharray:2.0,2.0;" x1="329" x2="420.5" y1="349.7578" y2="349.7578"/><text fill="#000000" font-family="sans-serif" font-size="13" lengthAdjust="spacing" textLength="29" x="336" y="344.6919">Task</text><polygon fill="#181818" points="543.5,374.8906,553.5,378.8906,543.5,382.8906,547.5,378.8906" style="stroke:#181818;stroke-width:1.0;"/><line style="stroke:#181818;stroke-width:1.0;" x1="436.5" x2="549.5" y1="378.8906" y2="378.8906"/><text fill="#000000" font-family="sans-serif" font-size="13" lengthAdjust="spacing" textLength="100" x="443.5" y="373.8247">ProcessImage()</text><polygon fill="#181818" points="840,404.0234,850,408.0234,840,412.0234,844,408.0234" style="stroke:#181818;stroke-width:1.0;"/><line style="stroke:#181818;stroke-width:1.0;" x1="565.5" x2="846" y1="408.0234" y2="408.0234"/><text fill="#000000" font-family="sans-serif" font-size="13" lengthAdjust="spacing" textLength="83" x="572.5" y="402.9575">ApplyFilters()</text><polygon fill="#181818" points="576.5,433.1563,566.5,437.1563,576.5,441.1563,572.5,437.1563" style="stroke:#181818;stroke-width:1.0;"/><line style="stroke:#181818;stroke-width:1.0;stroke-dasharray:2.0,2.0;" x1="570.5" x2="856" y1="437.1563" y2="437.1563"/><text fill="#000000" font-family="sans-serif" font-size="13" lengthAdjust="spacing" textLength="91" x="582.5" y="432.0903">Filtered Image</text><polygon fill="#181818" points="687,462.2891,697,466.2891,687,470.2891,691,466.2891" style="stroke:#181818;stroke-width:1.0;"/><line style="stroke:#181818;stroke-width:1.0;" x1="565.5" x2="693" y1="466.2891" y2="466.2891"/><text fill="#000000" font-family="sans-serif" font-size="13" lengthAdjust="spacing" textLength="81" x="572.5" y="461.2231">SaveResult()</text><polygon fill="#181818" points="571.5,491.4219,561.5,495.4219,571.5,499.4219,567.5,495.4219" style="stroke:#181818;stroke-width:1.0;"/><line style="stroke:#181818;stroke-width:1.0;stroke-dasharray:2.0,2.0;" x1="565.5" x2="703" y1="495.4219" y2="495.4219"/><text fill="#000000" font-family="sans-serif" font-size="13" lengthAdjust="spacing" textLength="83" x="577.5" y="490.356">Acknowledge</text><polygon fill="#181818" points="188,520.5547,198,524.5547,188,528.5547,192,524.5547" style="stroke:#181818;stroke-width:1.0;"/><line style="stroke:#181818;stroke-width:1.0;" x1="28" x2="194" y1="524.5547" y2="524.5547"/><text fill="#000000" font-family="sans-serif" font-size="13" lengthAdjust="spacing" textLength="72" x="35" y="519.4888">GetResult()</text><polygon fill="#181818" points="687,549.6875,697,553.6875,687,557.6875,691,553.6875" style="stroke:#181818;stroke-width:1.0;"/><line style="stroke:#181818;stroke-width:1.0;" x1="210" x2="693" y1="553.6875" y2="553.6875"/><text fill="#000000" font-family="sans-serif" font-size="13" lengthAdjust="spacing" textLength="84" x="217" y="548.6216">FetchResult()</text><polygon fill="#181818" points="221,578.8203,211,582.8203,221,586.8203,217,582.8203" style="stroke:#181818;stroke-width:1.0;"/><line style="stroke:#181818;stroke-width:1.0;stroke-dasharray:2.0,2.0;" x1="215" x2="698" y1="582.8203" y2="582.8203"/><text fill="#000000" font-family="sans-serif" font-size="13" lengthAdjust="spacing" textLength="39" x="227" y="577.7544">Result</text><polygon fill="#181818" points="39,607.9531,29,611.9531,39,615.9531,35,611.9531" style="stroke:#181818;stroke-width:1.0;"/><line style="stroke:#181818;stroke-width:1.0;stroke-dasharray:2.0,2.0;" x1="33" x2="199" y1="611.9531" y2="611.9531"/><text fill="#000000" font-family="sans-serif" font-size="13" lengthAdjust="spacing" textLength="143" x="45" y="606.8872">Processed image path</text><polygon fill="#181818" points="193,637.0859,203,641.0859,193,645.0859,197,641.0859" style="stroke:#181818;stroke-width:1.0;"/><line style="stroke:#181818;stroke-width:1.0;" x1="28" x2="199" y1="641.0859" y2="641.0859"/><text fill="#000000" font-family="sans-serif" font-size="13" lengthAdjust="spacing" textLength="64" x="35" y="636.02">GetError()</text><polygon fill="#181818" points="687,666.2188,697,670.2188,687,674.2188,691,670.2188" style="stroke:#181818;stroke-width:1.0;"/><line style="stroke:#181818;stroke-width:1.0;" x1="215" x2="693" y1="670.2188" y2="670.2188"/><text fill="#000000" font-family="sans-serif" font-size="13" lengthAdjust="spacing" textLength="76" x="222" y="665.1528">FetchError()</text><polygon fill="#181818" points="226,695.3516,216,699.3516,226,703.3516,222,699.3516" style="stroke:#181818;stroke-width:1.0;"/><line style="stroke:#181818;stroke-width:1.0;stroke-dasharray:2.0,2.0;" x1="220" x2="698" y1="699.3516" y2="699.3516"/><text fill="#000000" font-family="sans-serif" font-size="13" lengthAdjust="spacing" textLength="31" x="232" y="694.2856">Error</text><polygon fill="#181818" points="39,724.4844,29,728.4844,39,732.4844,35,728.4844" style="stroke:#181818;stroke-width:1.0;"/><line style="stroke:#181818;stroke-width:1.0;stroke-dasharray:2.0,2.0;" x1="33" x2="204" y1="728.4844" y2="728.4844"/><text fill="#000000" font-family="sans-serif" font-size="13" lengthAdjust="spacing" textLength="66" x="45" y="723.4185">Error code</text><polygon fill="#181818" points="193,753.6172,203,757.6172,193,761.6172,197,757.6172" style="stroke:#181818;stroke-width:1.0;"/><line style="stroke:#181818;stroke-width:1.0;" x1="28" x2="199" y1="757.6172" y2="757.6172"/><text fill="#000000" font-family="sans-serif" font-size="13" lengthAdjust="spacing" textLength="73" x="35" y="752.5513">Shutdown()</text><polygon fill="#181818" points="414.5,782.75,424.5,786.75,414.5,790.75,418.5,786.75" style="stroke:#181818;stroke-width:1.0;"/><line style="stroke:#181818;stroke-width:1.0;" x1="215" x2="420.5" y1="786.75" y2="786.75"/><text fill="#000000" font-family="sans-serif" font-size="13" lengthAdjust="spacing" textLength="40" x="222" y="781.6841">Stop()</text><polygon fill="#181818" points="226,811.8828,216,815.8828,226,819.8828,222,815.8828" style="stroke:#181818;stroke-width:1.0;"/><line style="stroke:#181818;stroke-width:1.0;stroke-dasharray:2.0,2.0;" x1="220" x2="430.5" y1="815.8828" y2="815.8828"/><text fill="#000000" font-family="sans-serif" font-size="13" lengthAdjust="spacing" textLength="54" x="232" y="810.8169">Stopped</text><polygon fill="#181818" points="39,841.0156,29,845.0156,39,849.0156,35,845.0156" style="stroke:#181818;stroke-width:1.0;"/><line style="stroke:#181818;stroke-width:1.0;stroke-dasharray:2.0,2.0;" x1="33" x2="204" y1="845.0156" y2="845.0156"/><text fill="#000000" font-family="sans-serif" font-size="13" lengthAdjust="spacing" textLength="129" x="45" y="839.9497">Shutdown Complete</text><!--SRC=[ZLJBJiCm4BpxAwnoWKF5dGCIRqNYK6WHPpTUDLRJsDWRIlbwx7KUZWigDpSxkpEpZnfXKPNAY0RvxCs1dN7XUEiVRAs_-ApOYGtmXTKbEAUQ3NzMQoliOSRFdjMcmjkw1MRI8ZUBWce8ewQ1bN1R_j922nJ_2AyfubtRBLY-qBecYF6FAM8YHqUnflyrXRw2QskyVB1MMxv4RIEj2oy6ZUJUNoQmKbREmwT3PrE1eoGC4Gem5dh3vzV17x_YHQDGYLfzm_a54oMgJu50taFSmu87ZrkYpquXqLi8peTY10B994nXLCgZY3hbbBcSPRlUAGoT3bnH0JNQnnuQUlN1dY7E8O96AJVbjj7x6kG6SdgQOt7FKfdTCCdEoBYoXuKsEM6qz1Tzrw-Gn8Q2muXzf1i-RSAaxBW60zgdZgCBheof3u-gHh0kpKtcc-3d6NDC1Cc9ExMVv4_8QTd2MCGdn7rCMUCgHapEbVO_8OefwNuChlEbEPfEjYfFWCUIaiNjjJy2bjLfyR5enEKRqutCTqxH_Hg1rIzow5J_ewO7vkpqFIUFVm2bbaSTM5OjIhrlnbCPZbMRqxUgZJbzgpq7lzCxKmC2-m40]--></g></svg>